<svg version="1" xmlns="http://www.w3.org/2000/svg" width="933.333" height="933.333" viewBox="0 0 700.000000 700.000000"><path d="M76.3 89c-1.6.5-1.8 2-1.9 16.5-.1 15.3-1.2 47.5-1.9 56-.2 2.2-.6 8.9-.9 14.8-.4 6-.8 13.9-1.1 17.5-.3 3.7-.7 10-1 13.9l-.4 7.3h42.6l.2-20.8c.4-37.8 1.6-69.1 3.6-96.5l.7-8.7-2.9-.1c-15.2-.3-35.5-.3-37 .1zM609.8 88.8l-10.8.3-.1 9.2c0 8.1-.5 19.2-.8 20.7-.1.3-2.9.3-6.3 0-14.3-1.4-30.6.6-40.2 4.9-16.9 7.5-28.4 28-28.4 50.4 0 24.8 15.3 42 38.2 43.2 11.3.5 22.7-3.3 30.3-10l3.8-3.4.3 5.5.3 5.4H613c9.4 0 17-.3 17.1-.8.1-.4.2-5.2.4-10.7.5-15.4 1.7-49.5 2-54 .1-2.2.5-9.9.9-17 .5-7.2.9-14.6 1.1-16.5.2-1.9.6-7.6 1-12.5.3-5 .8-10.2 1-11.8.3-2.6.2-2.7-4.3-2.8-2.6 0-6.3-.1-8.2-.2-1.9-.1-8.3-.1-14.2.1zm-13.1 55.4c.6.5 1 1.5.8 2.1-.2.7-.6 5.7-.9 11.2-1.1 21.1-8.3 32.5-20.5 32.5-4.4 0-10.6-3.8-12.9-7.8-6.5-11.6-1.1-30.7 10.3-36.2 7.2-3.5 19.9-4.5 23.2-1.8zM229.9 93.2c-.3 19.7-1.2 43-2.4 62.8-.2 3.6-.6 11.9-1 18.5-.7 13-1.1 19.5-2.1 32.2l-.6 8.3h38l.2-9.3c.3-12.2.7-23.6 1.4-38.2.3-6.6.8-16.7 1.1-22.5.9-19.7 1.6-30.7 3-49.8l.5-6.2h-38l-.1 4.2zM332.8 118.5c-.2.2-3.5.5-7.5.8-6.3.6-29.3 4.5-30.1 5.2-.3.2-1.4 7.1-2.7 16.5-.4 2.4-.9 4.8-1.1 5.2-.8 1.3 1.3.9 7.9-1.3 23.9-8.1 43.8-7.7 43.7.8-.1 5.6-3.5 7.3-23.4 11.4-13.4 2.7-21.1 5.5-27.6 9.9-11.5 7.7-16 21.7-10.7 33.3 5.5 12.1 14.8 16.8 33.3 16.9 13.4 0 14-.2 15.8-6.5.9-2.9 2.2-7.4 3.1-10l1.5-4.9-4.3.8c-5.7 1-11.6.7-13.4-.8-4.1-3.4-3.5-10.1 1.1-13.2 1.3-.8 6.5-2.8 11.7-4.4 5.2-1.6 10.2-3.3 11.3-3.7 1.7-.8 1.8-.2 1.1 12.6-.4 7.4-.8 14.1-1 15-.2.9-.5 4.3-.6 7.5l-.3 5.8 17.3.1c9.5 0 17.6-.2 18.1-.5.4-.3 1-8.4 1.4-18 .3-9.6.9-22.2 1.3-28 .4-5.8.7-15.7.8-22 0-10.8-.2-11.7-2.7-15.7-5.1-7.8-16.4-12-34-12.7-5.4-.2-9.9-.2-10-.1zM468.5 118.7c-11 1.2-21.6 6-27.3 12.2l-2.4 2.6.4-6.3.4-6.2h-37.2l-.1 5.2c-.1 9.2-1.5 46-1.8 47.7-.1.9-.6 6.2-1 11.9-.3 5.7-.8 11.3-1 12.4-.3 1.2-.7 5.4-1.1 9.5l-.7 7.3 18.2-.2c10.1-.2 18.5-.6 18.7-1 .3-.5.7-6.3.9-13.1.4-11.3 1.2-22.4 2-26.5.1-.9.6-3.7 1-6.2 1.8-11 9-19.4 17-20 5.9-.4 7.5 0 10.9 3 6.1 5.4 6.3 10.4 3.3 61l-.2 2.5 18.3.1c10 .1 18.4-.2 18.6-.5.2-.3.7-8.9 1.1-19.1.3-10.2.9-22.1 1.1-26.5 1.5-26.4 1.1-30.9-3.3-37.6-3.7-5.6-11.4-10.3-18.4-11.4-5.4-.7-14.2-1.2-17.4-.8zM159.4 120.5c-14.3 3-22.1 10.9-23.1 23.6-.9 10.6 3.1 16.5 20.6 30.1 6.4 4.9 11.9 9.8 12.3 10.8.5 1.4 0 2.8-1.5 4.6-2 2.2-3.2 2.6-9.5 2.9-7 .4-11.4-.5-26.3-5.4-2.6-.9-2.7-.8-2.4 3.3.1 2.2.6 7.5 1.1 11.6.4 4.1.7 8 .6 8.6-.4 2 2.1 3.2 10.3 4.8 4.4.9 9.1 1.9 10.5 2.2 5.2 1 22.9.5 29.2-1 16.3-3.8 25-12.7 25.1-25.9.1-11.4-4.2-17.1-22.5-30-10.4-7.4-12.2-10.4-8.4-14.2 2.9-2.9 18-3.1 26.2-.4 3.1 1 6.1 1.9 6.5 1.9.5 0 .6-2.6.3-5.8-.2-3.1-.6-8.6-.8-12.1-.2-3.4-.8-6.7-1.3-7.1-.4-.5-3-1.1-5.8-1.4-2.7-.4-6.1-.8-7.5-1.1-5.8-1.2-27.8-1.2-33.6 0zM264.9 285.5c-.1 4.1-.1 8.4-.1 9.5 0 5.9-1.3 5.5 18.2 5.8l18 .3.1-3.8c.1-2.1.2-7.3.4-11.6l.4-7.7H265l-.1 7.5zM108 281.2c0 .4 2.1 6.5 4.6 13.5 17.6 49.1 19.5 54.7 33.3 95.4l5.6 16.6 22.5-.1h22.5l22.3-44.5c12.2-24.5 26.5-52.9 31.7-62.9 5.2-10.1 9.5-18.6 9.5-18.8 0-.2-9.3-.4-20.6-.4h-20.5l-2 4.7c-1.1 2.7-2.8 6.6-3.9 8.8-7.8 16.9-30.9 68.3-33.1 73.9l-2.7 7-2.2-7.5c-1.1-4.1-3.9-13.2-6.1-20.3-2.2-7-4.2-13.6-4.5-14.5-.3-1.3-12.2-39.9-15.2-49.1l-.7-2.5h-20.3c-11.1-.1-20.2.3-20.2.7zM355 311.4c-18.3 3.3-31.1 14.6-36.1 31.7-4 13.9-4.4 23-1.3 33.9 2.2 7.7 4.9 12.6 10 18 6.2 6.7 11.9 9.5 24.9 12.6 6.5 1.6 33.9 1.2 43.4-.6 5-.9 9.3-1.9 9.5-2.1.3-.4 4.4-25.2 4.2-25.6-.1-.1-4.6 1-10.1 2.4-11.2 2.7-27.1 3.8-33 2.2-5.4-1.5-11.1-5.6-12.5-8.9-2.1-5.2-2.9-9.9-1.6-10.8.6-.5 15-.9 31.9-.8 17 .1 31.4-.2 32-.6.6-.4 1.2-4.3 1.3-9.4.5-20.4-9.3-34.8-27.5-40.5-8.1-2.5-25.6-3.2-35.1-1.5zm22.7 22.6c2.4 1.4 3.6 3.2 4.6 6.7 2.5 8.4 2.6 8.3-14.4 8.3H353l.6-2.8c1.4-5.6 6.3-12 10.4-13.5 3.5-1.3 10.6-.6 13.7 1.3zM560 323.5c-2.3 6.6-6.4 18.5-9.2 26.5-2.8 8-5.5 15.6-6.1 17-1 2.5-1 2.5-1.8-1-1.7-7.8-2-9.4-3.5-14.8-.9-3.2-1.9-7.3-2.4-9.2-.4-1.9-2.2-9.5-4-16.8l-3.3-13.2-18.1.2-18.1.3-2.2 6.5c-1.2 3.6-5.6 16.4-9.7 28.5-6.3 18.7-7.5 21.6-8.1 19-.4-1.7-3.8-14.4-7.6-28.3s-6.9-25.5-6.9-25.7c0-.3-7.8-.5-17.4-.5h-17.4l11.8 35.2c6.4 19.4 13.4 40.7 15.5 47.4l3.7 12 16.7-.2c9.1-.2 16.9-.3 17.2-.4.4 0 1.7-2.8 2.9-6.3 1.2-3.4 2.6-7.1 3-8.2 1.5-3.8 4.8-13 9-25 2.2-6.6 4.5-12.9 4.9-14 .6-1.5 1.2 0 2.5 6 3.7 17.1 10.9 46 11.7 46.9.6.7 22.9 1.1 33.9.7.9-.1 2.2-1.8 2.9-3.9.8-2 9.5-22.6 19.3-45.7 9.9-23.1 18.1-42.6 18.2-43.4.1-1.2-2.8-1.5-16.5-1.5l-16.7-.1-4.2 12zM263.9 318.8c-.3 25.9-2.1 60.7-4 76.7-.5 4.4-.9 8.7-.9 9.6 0 1.4 2.2 1.6 20 1.6l20-.1.1-20c.1-28.3 1.2-58.3 2.5-69.4l.6-5.2h-19.1l-19.1.1-.1 6.7zM220.5 471.8c-.2.2-11.9.4-26.2.5l-25.9.1-.1 13.6c-.1 15.7-1.2 54.4-1.7 61-.3 2.5-.7 10.1-1 17-.7 13.2-1.4 22.8-2.2 29.7-.3 3.1-.1 4.3.8 4.4 8.4.6 34.1.2 34.6-.6.4-.6.7-4.6.8-9 .3-16.7 1.6-62.2 1.9-67 .2-2.8.4-8.7.6-13.3.1-6.5.5-8.4 1.8-9.1 2.5-1.2 19.4-.7 22.9.8 6.3 2.6 8 12.4 3.2 19.1-3.4 4.8-7.4 6.4-16 6.3h-7.6l3.1 12.3c2.4 9.8 3.4 12.4 5 12.8 2.5.7 21.1.1 25-.8 1.7-.4 5.8-2 9.3-3.6 16.7-7.8 25.7-27.1 21.7-46.6-3.3-15.5-13.2-24.7-29.2-27-4.6-.6-20.3-1.1-20.8-.6zM280 472c-.4.3-1 6.6-1.2 14l-.3 13.5h39l-.2 11.5c-.4 18.3-1.7 44.3-2.8 57.5-1 12.9-1.8 23.3-1.9 26.5l-.1 3.4h19.7c10.9 0 20.1-.4 20.5-.7.4-.4.8-7.4.8-15.5.2-12.8.8-30.4 2-54.2.4-7.2 1.7-24.7 2-27 .2-1.3 3-1.5 19.7-1.3l19.5.1.2-11.8c.1-6.6.4-12.8.6-14 .2-1.1-.2-2.1-.8-2.1-4.2-.4-116-.3-116.7.1zM447.7 485.2c-6.1 12.2-12.5 24.5-23.7 45.3-2.3 4.4-6.2 11.6-8.5 16-14.9 28.1-21.2 39.7-24.1 44.8-1.9 3.2-3.4 6.1-3.4 6.5 0 .4 9.6.7 21.2.6h21.3l1.7-3.5c1-1.8 4.6-9.6 8.2-17.2 3.5-7.6 6.7-14.1 7-14.5.8-.7 45.4-1 46.5-.2.5.3 3.2 7.9 6.1 17 2.9 9.1 5.6 17 6.1 17.5.5.8 39.9 1.3 41.6.6.2-.1-.9-3.1-2.3-6.9-1.5-3.7-4.1-10.8-6-15.9-1.8-5-4.4-12-5.7-15.5-2.1-5.2-9.1-24-15.5-41.3-.8-2.2-4.7-13.5-8.7-25l-7.3-21-23.9-.3-24-.2-6.6 13.2zm33.8 30.8c2.6 8 5.1 15.7 5.5 17.2l.8 2.7-14.3-.1-14.4-.1 3.3-6.6c1.8-3.6 5.7-11.7 8.7-17.9 2.9-6.2 5.4-11 5.6-10.5.1.4 2.3 7.3 4.8 15.3z"/></svg>