<?xml version="1.0" encoding="utf-8"?>
<!-- Generator: Adobe Illustrator 21.1.0, SVG Export Plug-In . SVG Version: 6.00 Build 0)  -->
<svg version="1.1" id="Layer_1" xmlns="http://www.w3.org/2000/svg" xmlns:xlink="http://www.w3.org/1999/xlink" x="0px" y="0px"
	 viewBox="0 0 598 82" style="enable-background:new 0 0 598 82;" xml:space="preserve">
<style type="text/css">
	.st0{fill:#000C4E;}
</style>
<g>
	<g>
		<path class="st0" d="M13,62.9c1.3-18.3,2-32.4,2-42.2l0-4.4c4,0,6.7,0.1,8,0.1c0.6,0,3.1,0,7.3-0.1c-0.4,5.1-0.7,10-1,14.5
			c-0.3,6.4-0.5,12.3-0.7,17.9c-0.1,5.5-0.2,10.3-0.2,14.2l-7-0.1C20,62.8,17.2,62.8,13,62.9z"/>
		<path class="st0" d="M36.1,62.2c-0.1-1-0.2-2.1-0.3-3.2c-0.1-1.1-0.2-2.6-0.4-4.6L35.1,52c2.2,0.9,4.1,1.5,5.7,1.9
			c1.6,0.4,3.1,0.6,4.4,0.6c1.1,0,2-0.1,2.7-0.3c0.7-0.2,1.2-0.5,1.5-0.9c0.3-0.4,0.5-0.8,0.5-1.2c0-0.4-0.1-0.7-0.4-1.1
			c-0.2-0.4-0.8-0.8-1.6-1.5C46,48.3,44.4,47.1,43,46c-1.4-1.1-2.5-2.1-3.2-3c-0.7-0.9-1.3-1.8-1.6-2.8c-0.4-1-0.6-2-0.6-3.1
			c0-1.9,0.5-3.7,1.6-5.3c1.1-1.6,2.7-2.8,4.8-3.6c2.1-0.7,4.7-1.1,7.7-1.1c3.2,0,7.2,0.4,12.1,1.2l0.5,9.6c-2.8-1.1-5.4-1.6-8-1.6
			c-1.8,0-3.1,0.2-3.9,0.6c-0.8,0.4-1.2,0.9-1.2,1.7c0,0.3,0,0.5,0.1,0.7c0.1,0.2,0.3,0.5,0.5,0.7c0.2,0.3,0.5,0.5,0.9,0.8
			c0.4,0.3,1.2,0.9,2.6,1.8c1.4,1,2.4,1.7,3.2,2.4c1.3,1,2.2,1.9,2.9,2.8c0.7,0.9,1.2,1.8,1.5,2.7s0.5,2,0.5,3.1
			c0,1.6-0.4,3.1-1.2,4.5c-0.8,1.4-2,2.5-3.6,3.4c-1.6,0.9-3.3,1.5-5.1,1.9c-1.8,0.4-3.7,0.5-5.7,0.5c-1.3,0-3-0.1-5-0.3
			C41,63.2,38.7,62.8,36.1,62.2z"/>
		<path class="st0" d="M70.1,62.9l0.6-7.3L72,30l0.4-13.7c3.2,0,5.6,0.1,7.1,0.1c2.1,0,4.4,0,6.9-0.1l-0.8,10.5l-1.3,25.8l-0.3,10.3
			c-2.4,0-4.6,0-6.6,0L70.1,62.9z"/>
		<path class="st0" d="M95,37.9c0.4-2.3,0.7-3.8,0.8-4.7c0.1-0.9,0.3-2.2,0.5-4c6.6-1.4,12.2-2.2,16.9-2.2c2.7,0,5.1,0.3,7.4,0.9
			c2.2,0.6,4,1.6,5.2,2.9c1.3,1.3,1.9,3.3,1.9,5.8c0,1.3-0.2,4.1-0.5,8.6c-0.3,4.5-0.6,10.3-0.8,17.6c-2.2,0-4.5-0.1-6.7-0.1
			c-2.1,0-4.4,0-6.8,0.1c0.3-2.5,0.7-7.7,1-15.5c-0.9,0.4-1.5,0.7-2,0.9c-0.5,0.2-1.3,0.5-2.6,0.8c-1.2,0.4-2.2,0.7-2.9,0.9
			c-0.7,0.3-1.3,0.6-1.8,1c-0.5,0.4-0.9,0.8-1.1,1.2c-0.2,0.4-0.3,0.9-0.3,1.4c0,0.8,0.3,1.4,0.9,2c0.6,0.5,1.6,0.8,2.9,0.8
			c0.5,0,1,0,1.5-0.1c0.5-0.1,1.3-0.3,2.3-0.6c-0.7,1.8-1.4,4.3-2.4,7.7c-2,0.3-3.8,0.5-5.6,0.5c-2.8,0-5.2-0.4-7.1-1.2
			c-1.9-0.8-3.3-2.1-4.3-3.8c-1-1.8-1.5-3.5-1.5-5.3c0-1.1,0.2-2.1,0.6-3.1c0.4-1,1-2,1.8-3c0.8-1,1.7-1.8,2.8-2.5
			c1.1-0.7,2.5-1.3,4.4-2s4.2-1.2,7-1.7c1.2-0.2,2.3-0.5,3.3-0.7c1-0.3,1.7-0.5,2.1-0.7c0.4-0.2,0.8-0.4,1-0.7
			c0.3-0.3,0.4-0.5,0.6-0.8c0.1-0.3,0.2-0.6,0.2-0.9c0-0.9-0.4-1.5-1.1-2c-0.7-0.5-1.8-0.7-3.2-0.7C105.6,34.6,100.8,35.7,95,37.9z"
			/>
		<path class="st0" d="M133.8,62.9c0.7-5.2,1.2-10.9,1.5-17.1c0.3-6.2,0.6-12.2,0.6-17.7c2.7,0,5.1,0.1,7.1,0.1c2.3,0,4.5,0,6.6-0.1
			l-0.3,4.6c0.8-0.8,1.4-1.5,1.9-2c0.5-0.5,1.2-1,2-1.4c0.8-0.5,1.7-0.8,2.6-1.1c0.9-0.3,1.9-0.5,3-0.7c1.1-0.2,2.2-0.3,3.4-0.3
			c1.6,0,3.2,0.2,4.8,0.5c1.6,0.4,2.9,0.9,3.9,1.5c1,0.6,1.9,1.5,2.6,2.4c0.7,1,1.2,2,1.4,3.1c0.2,1.1,0.3,2.3,0.3,3.4
			c0,0.9-0.1,2.7-0.3,5.6l-0.6,12.4c-0.1,2.4-0.2,4.7-0.2,6.8c-2.3,0-4.4-0.1-6.4-0.1c-2.7,0-5.2,0-7.4,0.1c0.2-2.1,0.4-5.2,0.7-9.2
			c0.2-4.1,0.3-7,0.3-8.6c0-2.6-0.5-4.4-1.5-5.4c-1-1-2.2-1.5-3.7-1.5c-1.3,0-2.6,0.4-3.7,1.3c-1.2,0.9-2.1,2.1-2.7,3.8
			c-0.6,1.7-1.1,4.4-1.4,8.1c-0.3,3.8-0.4,7.6-0.5,11.5c-2.3,0-4.5-0.1-6.7-0.1C138.9,62.8,136.5,62.8,133.8,62.9z"/>
		<path class="st0" d="M220.1,62.9c-2.4,0-4.5-0.1-6.1-0.1c-1.8,0-4,0-6.6,0.1l0.2-4.3c-0.9,0.9-1.7,1.6-2.3,2.1
			c-0.7,0.5-1.5,1.1-2.5,1.6c-1,0.5-2.2,0.9-3.3,1.2c-1.2,0.3-2.4,0.4-3.7,0.4c-2.2,0-4.2-0.4-6.1-1.2c-1.9-0.8-3.5-1.9-4.9-3.4
			c-1.3-1.5-2.3-3.2-3-5.2c-0.7-2-1-4.1-1-6.3c0-3.1,0.6-6.1,1.8-9c1.2-2.9,2.8-5.2,4.7-6.9c1.9-1.7,4.1-2.9,6.6-3.6
			c2.4-0.7,5.1-1,7.9-1c1.9,0,4.1,0.2,6.6,0.5c0.2-2.7,0.3-6.5,0.4-11.4c2.8,0,5.1,0.1,6.9,0.1c2.3,0,4.6,0,7-0.1
			c-0.7,6.8-1.2,15-1.7,24.8C220.4,50.8,220.1,58,220.1,62.9z M208,36.5c-1.2-0.3-2.4-0.4-3.4-0.4c-2.2,0-4.1,0.4-5.6,1.3
			c-1.6,0.9-2.7,2.2-3.6,4c-0.8,1.8-1.2,3.6-1.2,5.3c0,1.3,0.2,2.5,0.7,3.6c0.5,1.1,1.2,1.9,2.2,2.5c1,0.6,2,0.9,3.2,0.9
			c1.3,0,2.4-0.4,3.4-1.1c1-0.7,1.9-1.7,2.5-3.1c0.7-1.4,1.1-3,1.3-4.9C207.7,42.8,207.9,40.1,208,36.5z"/>
		<path class="st0" d="M258.1,62.9l-1.3-4.2l-8.3-24L242,16.2c3.1,0,5.8,0.1,8.3,0.1c1.5,0,3.8,0,7-0.1c0.5,2,0.9,3.6,1.2,4.6
			c0.4,1.4,1.2,3.8,2.3,7.4l5,16.2c0.5,1.7,1.1,3.9,1.8,6.6l1.6-3.9L281.1,21c0.2-0.5,0.4-1,0.7-1.6c0.3-0.6,0.7-1.7,1.2-3.1
			c3.3,0,6,0.1,8,0.1c1.3,0,3.7,0,7.4-0.1c-2.3,4.3-4.9,9.4-7.9,15.2l-11.8,23.4c-1.1,2.3-2.4,5-3.8,8.1c-3.8,0-6.6-0.1-8.2-0.1
			C265.2,62.8,262.4,62.8,258.1,62.9z"/>
		<path class="st0" d="M297.8,62.9c0.3-2.8,0.6-5.1,0.7-6.9c0.2-1.8,0.3-4.1,0.5-6.9c0.1-2.8,0.3-5.9,0.4-9.3
			c0.1-3.4,0.2-7.3,0.3-11.8c3,0,5.3,0.1,7.1,0.1c1.6,0,3.9,0,7-0.1c-0.4,4.3-0.7,8.1-0.8,11.3c-0.2,3.3-0.3,6.7-0.3,10.3
			c-0.1,6.5-0.1,10.9-0.1,13.2c-2.7,0-5-0.1-7-0.1C303.5,62.8,300.9,62.8,297.8,62.9z M300,23.6c0.1-2.7,0.2-4.8,0.2-6.4
			c0-0.5,0-1.1,0-1.8c2.8,0,5.1,0.1,6.9,0.1c2.6,0,4.8,0,6.8-0.1c-0.1,0.7-0.1,1.3-0.1,1.8l-0.2,4.2c0,0.6-0.1,1.4-0.1,2.3
			c-2.3,0-4.4-0.1-6.5-0.1C304.8,23.6,302.5,23.6,300,23.6z"/>
		<path class="st0" d="M353.6,52.6c-0.3,1.4-0.9,4.7-1.7,9.9c-2.6,0.5-4.9,0.9-6.7,1c-1.8,0.2-3.6,0.3-5.5,0.3
			c-2.7,0-5.2-0.2-7.5-0.6c-2.3-0.4-4.2-1-5.9-2c-1.7-1-3-2.1-4.1-3.6c-1.1-1.4-2-3.1-2.5-5.1c-0.6-2-0.9-4-0.9-6
			c0-2.9,0.6-5.8,1.7-8.5c1.2-2.8,2.7-5,4.5-6.5c1.8-1.6,3.9-2.7,6.3-3.3c2.4-0.7,4.8-1,7.3-1c2.6,0,5.1,0.3,7.4,0.9
			c2.4,0.6,4.4,1.7,6,3.2c1.6,1.5,2.8,3.2,3.5,5.1c0.7,1.9,1,3.9,1,6.1c0,1.3-0.1,2.7-0.4,4.3l-23.9,0c0,0.4,0,0.7,0,1
			c0,2.4,0.9,4.3,2.6,5.4c1.8,1.2,3.9,1.7,6.4,1.7c1.5,0,3.2-0.2,5.1-0.5C348.4,54,350.8,53.4,353.6,52.6z M332.6,41.5h11.3
			c0-0.4,0-0.7,0-1c0-1.2-0.2-2.2-0.6-3c-0.4-0.8-1-1.5-1.8-1.8c-0.8-0.4-1.7-0.6-2.6-0.6c-0.7,0-1.3,0.1-2,0.3
			c-0.6,0.2-1.2,0.5-1.7,1c-0.5,0.4-0.9,0.9-1.3,1.5c-0.3,0.5-0.6,1.1-0.8,1.6C333,39.9,332.8,40.6,332.6,41.5z"/>
		<path class="st0" d="M370.4,62.9c-5-16-8.9-27.7-11.6-34.9c2.2,0,4.5,0.1,6.7,0.1c2.1,0,4.1,0,6.1-0.1l4.9,17.9l0.8,3.5l2.2-7
			l4.9-14.4c2.2,0,4.5,0.1,6.8,0.1c2.4,0,4.6,0,6.4-0.1l4.7,19.1l0.4,2.3l0.5-1.7c0.1-0.4,0.5-1.4,1-3l5.8-16.7
			c2.2,0,4.3,0.1,6.2,0.1c1.6,0,3.8,0,6.5-0.1l-12.6,29.5l-2.2,5.4c-2.4,0-4.4-0.1-6-0.1c-1.8,0-4.1,0-7,0.1l-2.4-9.9
			c-0.5-1.9-1.3-5.5-2.4-10.8c-3.4,9.8-5.8,16.7-7.4,20.7c-2.4,0-4.3-0.1-5.8-0.1C375.4,62.8,373.2,62.8,370.4,62.9z"/>
		<path class="st0" d="M442.8,62.9l0.7-8.7l0.9-17.1l0.4-12.1c0-1.3,0-2.6,0-3.9c0-1,0-2.6,0-4.8c3,0.1,5.4,0.1,7.2,0.1
			c1.8,0,4.2-0.1,7.2-0.2c3.1-0.1,5.6-0.2,7.8-0.2c3.1,0,5.3,0.2,6.8,0.6c1.5,0.4,2.8,1,4,1.8s2.2,1.8,2.9,2.9
			c0.8,1.1,1.4,2.4,1.7,3.8c0.4,1.4,0.6,2.9,0.6,4.4c0,3.1-0.7,5.8-2.2,8.4c-1.5,2.5-3.6,4.4-6.3,5.7c-2.7,1.3-5.7,1.9-9.1,1.9
			c-1.2,0-2.7-0.1-4.3-0.4c-0.2-1-0.5-2.6-1-4.7c-0.5-2.1-0.9-3.6-1.2-4.6c1,0.2,2,0.3,3.1,0.3c2.3,0,4-0.6,5.1-1.7
			c1.1-1.1,1.7-2.5,1.7-4c0-0.8-0.1-1.5-0.4-2.1c-0.3-0.6-0.6-1.1-1.2-1.5c-0.5-0.4-1.2-0.6-1.8-0.8c-0.7-0.1-1.4-0.2-2.3-0.2
			c-0.8,0-1.7,0-2.6,0.1l-2.9,0.2c-0.3,4.4-0.5,9.3-0.7,14.7c-0.3,9.8-0.4,15.7-0.4,17.6v4.4l-6.8-0.1
			C448.9,62.8,446.5,62.8,442.8,62.9z"/>
		<path class="st0" d="M497.6,62.9c1.1-11.1,1.8-23.2,2-36.5l-14.5,0.4l0.2-3.8c0.1-2,0.2-4.2,0.2-6.7c6.5,0,14,0.1,22.6,0.1l8.4,0
			h8.2l4.4,0l-0.2,3.3c-0.1,1.8-0.2,3.3-0.2,4.5c0,1.2-0.1,2.1-0.1,2.7c-4.9-0.3-8.9-0.4-12-0.4h-2.4c-0.3,4-0.6,7.7-0.8,11.1
			c-0.3,4.9-0.4,9.6-0.6,14.2c-0.1,4.6-0.2,8.3-0.2,11.2c-3.7,0-6.1-0.1-7.2-0.1C504.5,62.8,501.9,62.8,497.6,62.9z"/>
		<path class="st0" d="M525.5,62.9l2.8-4.9L546,24.7l1.9-3.7c0.5-1.1,1.3-2.7,2.3-4.7c4,0,6.9,0.1,8.8,0.1c3.2,0,6.2,0,8.9-0.1
			l5,14.2L583,57.9l2,5c-3.9,0-6.3-0.1-7.2-0.1c-1.9,0-4.7,0-8.4,0.1c-1-3.8-2.4-8.2-4.3-13.3h-17.2c-2,4-4,8.4-6.1,13.3
			c-4.2,0-6.8-0.1-7.8-0.1C532.2,62.8,529.4,62.8,525.5,62.9z M552,39.7h10.6c-2.6-8-4.1-12.4-4.3-13.3c-1.5,3.3-2.8,6.1-3.8,8.2
			L552,39.7z"/>
	</g>
</g>
</svg>
