<?xml version="1.0" encoding="utf-8"?>
<!-- Generator: Adobe Illustrator 21.1.0, SVG Export Plug-In . SVG Version: 6.00 Build 0)  -->
<svg version="1.1" id="Layer_1" xmlns="http://www.w3.org/2000/svg" xmlns:xlink="http://www.w3.org/1999/xlink" x="0px" y="0px"
	 viewBox="0 0 168 168" style="enable-background:new 0 0 168 168;" xml:space="preserve">
<style type="text/css">
	.st0{fill:#000C4E;}
</style>
<g>
	<path class="st0" d="M16.6,51.6c0.9-11.9,1.3-21,1.3-27.4l0-2.9c2.6,0,4.3,0,5.2,0c0.4,0,2,0,4.8,0c-0.3,3.3-0.5,6.5-0.6,9.5
		c-0.2,4.1-0.4,8-0.4,11.6c-0.1,3.6-0.1,6.7-0.1,9.2l-4.5,0C21.2,51.6,19.4,51.6,16.6,51.6z"/>
	<path class="st0" d="M31.6,51.2c-0.1-0.7-0.1-1.3-0.2-2.1c-0.1-0.7-0.2-1.7-0.3-3L31,44.6c1.4,0.6,2.7,1,3.7,1.3s2,0.4,2.9,0.4
		c0.7,0,1.3-0.1,1.8-0.2s0.8-0.3,1-0.6c0.2-0.3,0.3-0.5,0.3-0.8c0-0.2-0.1-0.5-0.2-0.7c-0.2-0.2-0.5-0.5-1.1-0.9
		c-1.2-0.9-2.3-1.7-3.2-2.4c-0.9-0.7-1.6-1.4-2.1-1.9c-0.5-0.6-0.8-1.2-1.1-1.8c-0.2-0.7-0.4-1.3-0.4-2c0-1.2,0.4-2.4,1.1-3.4
		c0.7-1.1,1.7-1.8,3.1-2.3c1.4-0.5,3-0.7,5-0.7c2.1,0,4.7,0.3,7.9,0.8l0.4,6.2c-1.8-0.7-3.5-1.1-5.2-1.1c-1.2,0-2,0.1-2.5,0.4
		s-0.8,0.6-0.8,1.1c0,0.2,0,0.3,0.1,0.5c0.1,0.1,0.2,0.3,0.3,0.5c0.2,0.2,0.3,0.3,0.6,0.5c0.2,0.2,0.8,0.6,1.7,1.2s1.6,1.1,2.1,1.5
		c0.8,0.7,1.5,1.3,1.9,1.8c0.4,0.6,0.8,1.1,1,1.8c0.2,0.6,0.3,1.3,0.3,2c0,1.1-0.3,2-0.8,2.9c-0.5,0.9-1.3,1.6-2.3,2.2
		c-1,0.6-2.1,1-3.3,1.2c-1.2,0.2-2.4,0.3-3.7,0.3c-0.9,0-1.9-0.1-3.2-0.2C34.9,51.9,33.4,51.6,31.6,51.2z"/>
	<path class="st0" d="M53.7,51.6l0.4-4.8L55,30.3l0.2-8.9c2.1,0,3.6,0,4.6,0c1.3,0,2.8,0,4.5,0l-0.5,6.8L63,44.9l-0.2,6.7
		c-1.6,0-3,0-4.3,0L53.7,51.6z"/>
	<path class="st0" d="M69.9,35.4c0.3-1.5,0.5-2.5,0.5-3c0.1-0.6,0.2-1.4,0.4-2.6c4.3-0.9,7.9-1.4,11-1.4c1.7,0,3.3,0.2,4.8,0.6
		c1.5,0.4,2.6,1,3.4,1.9c0.8,0.9,1.2,2.1,1.2,3.8c0,0.8-0.1,2.7-0.3,5.6c-0.2,2.9-0.4,6.7-0.5,11.4c-1.5,0-2.9,0-4.3,0
		c-1.4,0-2.9,0-4.4,0c0.2-1.6,0.4-5,0.7-10.1c-0.6,0.3-1,0.5-1.3,0.6c-0.3,0.1-0.9,0.3-1.7,0.5c-0.8,0.2-1.4,0.4-1.9,0.6
		c-0.5,0.2-0.8,0.4-1.2,0.6c-0.3,0.3-0.6,0.5-0.7,0.8c-0.1,0.3-0.2,0.6-0.2,0.9c0,0.5,0.2,0.9,0.6,1.3c0.4,0.4,1,0.5,1.9,0.5
		c0.3,0,0.6,0,1-0.1c0.4-0.1,0.8-0.2,1.5-0.4c-0.4,1.1-0.9,2.8-1.5,5c-1.3,0.2-2.5,0.3-3.6,0.3c-1.8,0-3.4-0.3-4.6-0.8
		c-1.2-0.5-2.2-1.3-2.8-2.5c-0.7-1.1-1-2.3-1-3.4c0-0.7,0.1-1.4,0.4-2s0.6-1.3,1.1-2c0.5-0.6,1.1-1.2,1.8-1.6
		c0.7-0.5,1.6-0.9,2.9-1.3c1.2-0.4,2.7-0.8,4.6-1.1c0.8-0.1,1.5-0.3,2.1-0.5c0.6-0.2,1.1-0.3,1.4-0.4c0.3-0.1,0.5-0.3,0.7-0.4
		c0.2-0.2,0.3-0.3,0.4-0.5c0.1-0.2,0.1-0.4,0.1-0.6c0-0.6-0.2-1-0.7-1.3c-0.5-0.3-1.2-0.5-2.1-0.5C76.8,33.3,73.7,34,69.9,35.4z"/>
	<path class="st0" d="M95.2,51.6c0.4-3.4,0.8-7.1,1-11.1s0.4-7.9,0.4-11.5c1.8,0,3.3,0,4.6,0c1.5,0,2.9,0,4.3,0l-0.2,3
		c0.5-0.5,0.9-1,1.3-1.3c0.4-0.3,0.8-0.6,1.3-0.9c0.5-0.3,1.1-0.6,1.7-0.7s1.2-0.3,1.9-0.5c0.7-0.1,1.4-0.2,2.2-0.2
		c1.1,0,2.1,0.1,3.1,0.3s1.9,0.6,2.5,1s1.3,0.9,1.7,1.6c0.5,0.6,0.8,1.3,0.9,2c0.1,0.7,0.2,1.5,0.2,2.2c0,0.6-0.1,1.8-0.2,3.6
		l-0.4,8c-0.1,1.6-0.1,3-0.1,4.4c-1.5,0-2.9,0-4.2,0c-1.8,0-3.4,0-4.8,0c0.1-1.3,0.3-3.3,0.4-6c0.1-2.7,0.2-4.5,0.2-5.6
		c0-1.7-0.3-2.8-1-3.5s-1.5-1-2.4-1c-0.9,0-1.7,0.3-2.4,0.8c-0.8,0.6-1.4,1.4-1.8,2.5c-0.4,1.1-0.7,2.8-0.9,5.3
		c-0.2,2.5-0.3,5-0.3,7.5c-1.5,0-2.9,0-4.3,0C98.5,51.6,96.9,51.6,95.2,51.6z"/>
	<path class="st0" d="M151.3,51.6c-1.6,0-2.9,0-4,0c-1.2,0-2.6,0-4.3,0l0.1-2.8c-0.6,0.6-1.1,1-1.5,1.4c-0.4,0.3-1,0.7-1.7,1
		s-1.4,0.6-2.2,0.8c-0.8,0.2-1.6,0.3-2.4,0.3c-1.4,0-2.7-0.3-4-0.8c-1.2-0.5-2.3-1.3-3.2-2.2c-0.9-1-1.5-2.1-2-3.4
		c-0.4-1.3-0.6-2.7-0.6-4.1c0-2,0.4-4,1.2-5.9c0.8-1.9,1.8-3.4,3.1-4.5c1.3-1.1,2.7-1.9,4.3-2.3c1.6-0.5,3.3-0.7,5.2-0.7
		c1.2,0,2.7,0.1,4.3,0.3c0.1-1.8,0.2-4.2,0.2-7.4c1.8,0,3.3,0,4.5,0c1.5,0,3,0,4.5,0c-0.4,4.4-0.8,9.8-1.1,16.1
		C151.4,43.8,151.3,48.5,151.3,51.6z M143.4,34.5c-0.8-0.2-1.5-0.3-2.2-0.3c-1.4,0-2.7,0.3-3.7,0.8c-1,0.6-1.8,1.4-2.3,2.6
		c-0.5,1.2-0.8,2.3-0.8,3.5c0,0.9,0.2,1.6,0.5,2.3c0.3,0.7,0.8,1.2,1.4,1.6c0.6,0.4,1.3,0.6,2.1,0.6c0.8,0,1.6-0.2,2.2-0.7
		c0.7-0.5,1.2-1.1,1.6-2c0.4-0.9,0.7-1.9,0.9-3.2C143.2,38.6,143.3,36.8,143.4,34.5z"/>
	<path class="st0" d="M36.3,97.6l-0.8-2.7l-5.4-15.6l-4.3-12c2,0,3.8,0,5.4,0c1,0,2.5,0,4.5,0c0.3,1.3,0.6,2.3,0.8,3
		c0.3,0.9,0.8,2.5,1.5,4.8l3.3,10.5c0.3,1.1,0.7,2.5,1.2,4.3l1-2.6l7.7-17c0.1-0.3,0.3-0.7,0.5-1.1c0.2-0.4,0.4-1.1,0.8-2
		c2.1,0,3.9,0,5.2,0c0.8,0,2.4,0,4.8,0c-1.5,2.8-3.2,6.1-5.1,9.9l-7.7,15.2c-0.7,1.5-1.6,3.2-2.5,5.3c-2.5,0-4.3,0-5.3,0
		C40.9,97.6,39,97.6,36.3,97.6z"/>
	<path class="st0" d="M62.1,97.6c0.2-1.8,0.4-3.3,0.5-4.5c0.1-1.2,0.2-2.7,0.3-4.5c0.1-1.8,0.2-3.8,0.3-6c0.1-2.2,0.1-4.8,0.2-7.7
		c1.9,0,3.5,0,4.6,0c1.1,0,2.6,0,4.5,0c-0.3,2.8-0.4,5.3-0.5,7.4c-0.1,2.1-0.2,4.4-0.2,6.7c-0.1,4.2-0.1,7.1-0.1,8.6
		c-1.8,0-3.3,0-4.5,0C65.8,97.6,64.1,97.6,62.1,97.6z M63.5,72.1c0.1-1.8,0.1-3.2,0.1-4.2c0-0.3,0-0.7,0-1.2c1.8,0,3.3,0,4.5,0
		c1.7,0,3.1,0,4.4,0c0,0.5-0.1,0.8-0.1,1.2l-0.1,2.8c0,0.4,0,0.9,0,1.5c-1.5,0-2.9,0-4.2,0C66.6,72.1,65.1,72.1,63.5,72.1z"/>
	<path class="st0" d="M98.4,90.9c-0.2,0.9-0.6,3-1.1,6.4c-1.7,0.3-3.2,0.6-4.3,0.7c-1.2,0.1-2.4,0.2-3.6,0.2c-1.8,0-3.4-0.1-4.9-0.4
		c-1.5-0.2-2.8-0.7-3.8-1.3c-1.1-0.6-2-1.4-2.7-2.3s-1.3-2-1.7-3.3s-0.6-2.6-0.6-3.9c0-1.9,0.4-3.7,1.1-5.6s1.7-3.2,2.9-4.2
		c1.2-1,2.6-1.7,4.1-2.2c1.6-0.4,3.1-0.6,4.8-0.6c1.7,0,3.3,0.2,4.8,0.6c1.5,0.4,2.8,1.1,3.9,2.1c1.1,1,1.8,2.1,2.3,3.3
		c0.5,1.2,0.7,2.6,0.7,4c0,0.8-0.1,1.8-0.3,2.8l-15.6,0c0,0.2,0,0.4,0,0.6c0,1.6,0.6,2.8,1.7,3.5c1.1,0.8,2.5,1.1,4.2,1.1
		c1,0,2.1-0.1,3.3-0.3C95,91.9,96.6,91.5,98.4,90.9z M84.7,83.8h7.3c0-0.3,0-0.5,0-0.6c0-0.8-0.1-1.4-0.4-2S91,80.2,90.5,80
		c-0.5-0.3-1.1-0.4-1.7-0.4c-0.4,0-0.9,0.1-1.3,0.2c-0.4,0.1-0.8,0.3-1.1,0.6c-0.3,0.3-0.6,0.6-0.8,0.9c-0.2,0.4-0.4,0.7-0.5,1
		S84.8,83.2,84.7,83.8z"/>
	<path class="st0" d="M109.3,97.6c-3.3-10.4-5.8-18-7.5-22.7c1.5,0,2.9,0,4.4,0c1.4,0,2.7,0,3.9,0l3.2,11.6l0.5,2.3l1.5-4.6l3.2-9.3
		c1.4,0,2.9,0,4.4,0c1.6,0,3,0,4.2,0l3.1,12.4l0.3,1.5l0.4-1.1c0.1-0.3,0.3-0.9,0.7-2l3.8-10.9c1.4,0,2.8,0,4,0c1.1,0,2.5,0,4.2,0
		l-8.2,19.2l-1.4,3.5c-1.5,0-2.8,0-3.9,0c-1.2,0-2.7,0-4.6,0l-1.6-6.4c-0.3-1.2-0.8-3.6-1.6-7c-2.2,6.4-3.8,10.8-4.8,13.4
		c-1.6,0-2.8,0-3.8,0C112.5,97.6,111.1,97.6,109.3,97.6z"/>
	<path class="st0" d="M39.2,143.6l0.4-5.7l0.6-11.1l0.2-7.9c0-0.8,0-1.7,0-2.5c0-0.6,0-1.7,0-3.1c2,0,3.5,0.1,4.7,0.1
		c1.1,0,2.7,0,4.7-0.1c2-0.1,3.7-0.1,5-0.1c2,0,3.5,0.1,4.4,0.4c1,0.3,1.8,0.6,2.6,1.2c0.8,0.5,1.4,1.2,1.9,1.9
		c0.5,0.7,0.9,1.6,1.1,2.5s0.4,1.9,0.4,2.8c0,2-0.5,3.8-1.4,5.4c-1,1.6-2.3,2.9-4.1,3.7c-1.7,0.8-3.7,1.2-5.9,1.2
		c-0.8,0-1.7-0.1-2.8-0.3c-0.1-0.7-0.3-1.7-0.7-3c-0.3-1.3-0.6-2.3-0.8-3c0.7,0.1,1.3,0.2,2,0.2c1.5,0,2.6-0.4,3.3-1.1
		c0.7-0.7,1.1-1.6,1.1-2.6c0-0.5-0.1-1-0.2-1.3c-0.2-0.4-0.4-0.7-0.8-1c-0.4-0.3-0.7-0.4-1.2-0.5c-0.4-0.1-0.9-0.1-1.5-0.1
		c-0.5,0-1.1,0-1.7,0l-1.9,0.1c-0.2,2.9-0.3,6-0.4,9.5c-0.2,6.4-0.3,10.2-0.3,11.5v2.9l-4.4,0C43.2,143.6,41.6,143.6,39.2,143.6z"/>
	<path class="st0" d="M74.9,143.6c0.7-7.2,1.2-15.1,1.3-23.8l-9.4,0.2l0.1-2.5c0.1-1.3,0.1-2.8,0.1-4.3c4.2,0,9.1,0,14.7,0l5.5,0
		h5.3l2.9,0l-0.1,2.2c-0.1,1.2-0.1,2.1-0.1,2.9s0,1.3,0,1.7c-3.2-0.2-5.8-0.2-7.8-0.2h-1.6c-0.2,2.6-0.4,5-0.5,7.2
		c-0.2,3.2-0.3,6.3-0.4,9.3c-0.1,3-0.1,5.4-0.1,7.3c-2.4,0-4,0-4.7,0C79.3,143.6,77.6,143.6,74.9,143.6z"/>
	<path class="st0" d="M93,143.6l1.8-3.2l11.5-21.6l1.2-2.4c0.4-0.7,0.9-1.7,1.5-3.1c2.6,0,4.5,0,5.7,0c2.1,0,4,0,5.8,0l3.2,9.3
		l6.6,17.8l1.3,3.2c-2.6,0-4.1,0-4.7,0c-1.2,0-3.1,0-5.5,0c-0.7-2.4-1.6-5.3-2.8-8.6h-11.2c-1.3,2.6-2.6,5.5-4,8.6
		c-2.8,0-4.4,0-5.1,0C97.3,143.6,95.5,143.6,93,143.6z M110.2,128.6h6.9c-1.7-5.2-2.7-8.1-2.8-8.6c-1,2.2-1.8,4-2.5,5.3L110.2,128.6
		z"/>
</g>
</svg>
